<svg xmlns="http://www.w3.org/2000/svg" width="729.55" height="562.195" viewBox="0 0 729.55 562.195">
  <g id="Group_907" data-name="Group 907" transform="translate(-2307.952 -742.581)">
    <g id="Group_904" data-name="Group 904" transform="translate(2396.812 742.581)">
      <path id="Path_1181" data-name="Path 1181" d="M2408.117,742.581h337.355a72.071,72.071,0,0,1,50.99,64.041c2.213,32.934-18.656,64.109-50.445,74.022-44.825,2.376-82.34,34-92.082,75.685-11.526,49.325,17.921,103.807,69.662,120.6v54.892h-48.043v38.259l45.64-.832q-.8,29.11-1.6,58.22c-111.178,12.111-215.767-31.434-270.64-116.439-35.359-54.775-40.591-112.075-40.837-143.638l125.712-2.742c0-12.2.8-23.565.8-35.764-41.9-1.752-84.609.089-126.513-1.663V883.3l127.314,1.5c.533-13.862,1.867-26.892,2.4-40.754-42.971-1.929-86.743.266-129.715-1.663Z" transform="translate(-2408.117 -742.581)" fill="#9ec7e1"/>
      <path id="Path_1182" data-name="Path 1182" d="M2975.617,952.373c1.777,12.92,22.42,211.253-105.693,272.8-16.065,7.718-37.521,16.834-66.323,19.129v-59.21l43.9-1.5q-.8-19.961-1.6-39.922l-42.3-.619v-52.238c14.308-5.085,47.179-19.211,63.12-51.937,6.167-12.659,8.885-26.224,9.609-29.942,5.277-27.088-2.038-34.388,2.14-56.956,1.593-8.6,6.36-35.9,25.907-47.319,15.664-9.148,34.041-3.222,47.266-4.04,21.464-1.329,43.115-1.57,54.4-1.47C3009.667,899.176,2972.415,929.085,2975.617,952.373Z" transform="translate(-2452.753 -760.249)" fill="#9ec7e1"/>
      <path id="Path_1183" data-name="Path 1183" d="M2919.88,1021.024" transform="translate(-2465.877 -774.007)" fill="#9ec7e1" stroke="#000" stroke-miterlimit="10" stroke-width="1"/>
      <ellipse id="Ellipse_229" data-name="Ellipse 229" cx="55.249" cy="57.388" rx="55.249" ry="57.388" transform="translate(278.648 177.985)" fill="#9ec7e1"/>
    </g>
    <g id="Group_906" data-name="Group 906" transform="translate(2307.952 846.182)">
      <g id="Group_905" data-name="Group 905">
        <path id="Path_1184" data-name="Path 1184" d="M2358.642,913.28a8.952,8.952,0,0,1,8.455-2.87,15.108,15.108,0,0,1,6.434,3.187,22.588,22.588,0,0,1,4.289,5.166,42.826,42.826,0,0,1,2.424,4.7q1.806,4.512,1.615,5.775-.419,3.993-2.762,3.64a3.085,3.085,0,0,1-1.514-.968l-.4-.428-1.7-2.193a15.337,15.337,0,0,0-1.167-1.422q-.556-.591-.951-1.019l-.626-.74-.562-.547-.5-.353-.576-.455-.005.644-.136.9-1.005,2.982q-2.44,5.164-7.758,4.359-3.969-.6-5.98-4.961a14.124,14.124,0,0,1-1.171-8.107A11.117,11.117,0,0,1,2358.642,913.28Zm3.831-25.329a8.953,8.953,0,0,1,8.455-2.869q6.207,1.029,10.723,8.352a25.6,25.6,0,0,1,4.052,10.386q-.615,4.056-2.777,3.73a4.949,4.949,0,0,1-1.514-.967l-.409-.339-1.682-2.282c-.1-.14-.338-.42-.7-.845s-.84-.956-1.418-1.6l-.611-.831-.577-.456-.5-.351-.577-.456-.005.644-.137.9-1,2.983q-2.439,5.163-7.758,4.359-3.967-.6-5.979-4.962a14.1,14.1,0,0,1-1.171-8.107A11.127,11.127,0,0,1,2362.474,887.952Z" transform="translate(-2315.023 -862.245)" fill="#fff"/>
        <path id="Path_1185" data-name="Path 1185" d="M2312.429,945.251a6.953,6.953,0,0,1,5.882-3.257q4.652-.056,7.355,4.4a12.237,12.237,0,0,1,2.246,7.813,13.056,13.056,0,0,1-3.988,9.009,7.94,7.94,0,0,1-5.619,2.033,7.572,7.572,0,0,1-6.461-3.826,14.054,14.054,0,0,1-1.886-7.622A15.182,15.182,0,0,1,2312.429,945.251Z" transform="translate(-2309.952 -868.688)" fill="#fff"/>
        <path id="Path_1186" data-name="Path 1186" d="M2312.272,979.665a6.954,6.954,0,0,1,5.584-3.744q4.631-.448,7.7,3.76a12.238,12.238,0,0,1,2.9,7.6,13.054,13.054,0,0,1-3.21,9.315,7.931,7.931,0,0,1-5.426,2.5,7.572,7.572,0,0,1-6.762-3.265,14.051,14.051,0,0,1-2.526-7.434A15.179,15.179,0,0,1,2312.272,979.665Z" transform="translate(-2310.013 -872.513)" fill="#fff"/>
        <path id="Path_1187" data-name="Path 1187" d="M2315.022,1013.967a6.948,6.948,0,0,1,5.245-4.2q4.576-.841,7.995,3.092a12.241,12.241,0,0,1,3.533,7.322,13.056,13.056,0,0,1-2.407,9.553,7.934,7.934,0,0,1-5.194,2.954,7.575,7.575,0,0,1-7.015-2.679,14.04,14.04,0,0,1-3.146-7.193A15.167,15.167,0,0,1,2315.022,1013.967Z" transform="translate(-2310.387 -876.321)" fill="#fff"/>
        <path id="Path_1188" data-name="Path 1188" d="M2359.452,1070.916a6.869,6.869,0,0,1-1.037.435,2.679,2.679,0,0,1-2.085-.362,2.823,2.823,0,0,1-1.31-2.2,4,4,0,0,1,1.774-3.494,4.874,4.874,0,0,0,1.565-1.974,7.158,7.158,0,0,0,.155-2.917l-.234-.939-27.08,6.789a2.489,2.489,0,0,0-1.771,1.85l-.013.179-.069.193a2.236,2.236,0,0,1-1.731,1.78q-2.267.564-2.871-1.868l-3.848-15.483a2.006,2.006,0,0,1,.846-2.5,1.914,1.914,0,0,1,.885-.454,2.125,2.125,0,0,1,2.307.777l.249.291a2.485,2.485,0,0,0,2.43.8l.568-.082,26.54-6.6-.219-.885q-.4-.9-.724-1.493a3.458,3.458,0,0,0-.772-.982,4.491,4.491,0,0,0-1.015-.658,7.621,7.621,0,0,0-1.382-.479,4.1,4.1,0,0,1-3.148-2.27,2.624,2.624,0,0,1,.087-2.488,2.839,2.839,0,0,1,1.771-1.38q.167-.041,3.358-.189l2.792-.106.553.1a2.39,2.39,0,0,1,1.78,1.728l7.448,29.97a2.392,2.392,0,0,1-.762,2.362l-.4.277-2.558,1.281Q2360.212,1070.551,2359.452,1070.916Z" transform="translate(-2311.175 -879.097)" fill="#fff"/>
        <path id="Path_1189" data-name="Path 1189" d="M2345.456,1116.843a10.855,10.855,0,0,1-7.085-5.629q-.8-1.83-2.55-5.373l-.339-.907q-.02-.055-.314-1.252t-.862-3.539a10.663,10.663,0,0,1,1.6-8.927,14.352,14.352,0,0,1,7.173-5.712,13.591,13.591,0,0,1,9.423-.169,11.68,11.68,0,0,1,7.043,6.009q2.053,4.039,2.332,4.785,2.923,7.848.246,13.712a12.642,12.642,0,0,1-7.5,6.627A14.351,14.351,0,0,1,2345.456,1116.843Zm11.729-16.168a3.049,3.049,0,0,0,.259-2.894,3.6,3.6,0,0,0-2.49-2.111q-2.507-.526-7.578,1.365-5.393,2.009-6.97,4.3a3.082,3.082,0,0,0-.312,2.914q1.134,3.043,5.8,2.031.947-.231,2.5-.719t3.635-1.262A10.131,10.131,0,0,0,2357.185,1100.675Z" transform="translate(-2312.66 -884.781)" fill="#fff"/>
        <path id="Path_1190" data-name="Path 1190" d="M2398.613,1162.518l.286-.759.577-1.388.253-1.267q.39-1.939-1.723-5.586l-.429-.74-.326-.336-.3-.289q-.886-.739-2.638-.052l-7.76,4.5,3.057,5.275q.314.543.485.609a4.8,4.8,0,0,0,1.04.089l.333,0,.3-.043a2.38,2.38,0,0,1,2.6,1.191q.973,1.675.215,2.642a12.9,12.9,0,0,1-3.464,2.4l-3.542,1.985a2.445,2.445,0,0,1-2.828-.336,1.941,1.941,0,0,1-.642-.878,2.412,2.412,0,0,1,.133-2.383l.092-.184.231-.4a2.082,2.082,0,0,0,.282-.591,1.354,1.354,0,0,0-.015-.65,4.012,4.012,0,0,0-.348-.885c-.174-.339-.424-.787-.747-1.346l-2.115-3.647-9.464,5.486a2.606,2.606,0,0,0-1.158,2.319l-.005.332a2.392,2.392,0,0,1-1.167,2.189,4.4,4.4,0,0,1-1.412.292q-1.068.092-1.836-1.238l-8.03-13.852a2.722,2.722,0,0,1-.437-1.262,2.083,2.083,0,0,1,.186-.931,1.774,1.774,0,0,1,.508-.656,4.97,4.97,0,0,1,.563-.393,2.168,2.168,0,0,1,2.481.076l.319.21a2.757,2.757,0,0,0,2.559.1l22.773-13.2a2.822,2.822,0,0,0,1.188-2.269l-.037-.177.013-.2a2.163,2.163,0,0,1,1.167-2.191,2.091,2.091,0,0,1,3.222.9l12.714,21.935q1.744,3.007,1.625,4.394t-2.77,3.515l-2.117,1.687a2.645,2.645,0,0,1-2.055.6,2.245,2.245,0,0,1-1.708-1.184A3.732,3.732,0,0,1,2398.613,1162.518Z" transform="translate(-2315.388 -890.321)" fill="#fff"/>
        <path id="Path_1191" data-name="Path 1191" d="M2402.05,1214.042a10.856,10.856,0,0,1-8.355-3.475q-1.274-1.54-3.923-4.47l-.574-.781q-.034-.047-.644-1.118t-1.8-3.168a10.668,10.668,0,0,1-.905-9.022,14.35,14.35,0,0,1,5.335-7.459,13.588,13.588,0,0,1,9.018-2.74,11.689,11.689,0,0,1,8.42,3.852q3.077,3.323,3.552,3.965,4.959,6.748,3.989,13.12a12.643,12.643,0,0,1-5.4,8.428A14.362,14.362,0,0,1,2402.05,1214.042Zm6.856-18.759a3.047,3.047,0,0,0-.542-2.854,3.6,3.6,0,0,0-2.974-1.35q-2.555.18-6.915,3.387-4.636,3.408-5.527,6.043a3.085,3.085,0,0,0,.5,2.888q1.925,2.617,6.139.366.849-.482,2.208-1.375t3.147-2.21A10.124,10.124,0,0,0,2408.905,1195.282Z" transform="translate(-2318.45 -895.753)" fill="#fff"/>
        <path id="Path_1192" data-name="Path 1192" d="M2438.979,1232.514a4.671,4.671,0,0,1-5.584-1.188,5.211,5.211,0,0,1-.395-.525q-.245-.355-.32-.441l-1.078-1.712a2.337,2.337,0,0,0-1.451-.764,5.41,5.41,0,0,0-2.628,1.593l-5.3,4.758a2.621,2.621,0,0,0-1.033,2.688l.106.288.059.406a2.009,2.009,0,0,1-.7,1.778,1.965,1.965,0,0,1-3.132-.249l-9.784-10.895a2.074,2.074,0,0,1-.593-1.727,2.249,2.249,0,0,1,.682-1.415,2.3,2.3,0,0,1,2.24-.4l.276.136a2.214,2.214,0,0,0,2.321-.4l.462-.339,8.271-7.5a2.354,2.354,0,0,0,.605-2.226l-.064-.327-.1-.449a2.1,2.1,0,0,1,.7-1.778,2.264,2.264,0,0,1,2.947-.043l8.709,5.351.349.261a1.291,1.291,0,0,1,.155.13q1.56,1.738-.813,3.87l-.722.648.648-.046,1.415-.045a11.39,11.39,0,0,1,2.892.236,5.977,5.977,0,0,1,2.408,1.744q3.768,4.2.08,7.509A9.431,9.431,0,0,1,2438.979,1232.514Z" transform="translate(-2320.919 -899.079)" fill="#fff"/>
        <path id="Path_1193" data-name="Path 1193" d="M2459.225,1278.858a1.965,1.965,0,0,1-.314-3.128,2.055,2.055,0,0,1,2.172-.687l.376.174a2.309,2.309,0,0,0,.81.021l.638-.654,1.042-1.209.936-1,3.161-3.669,3.212-4.075a1.775,1.775,0,0,0,.26-1.394,2.3,2.3,0,0,0-.79-1.4q-1.513-1.3-3.258.2l-.57.487-8.17,9.656c-.071.138-.024.405.14.8l.141.271.068.359a2.17,2.17,0,0,1-.425,1.89,1.966,1.966,0,0,1-3.141.153l-9.452-8.145a2.07,2.07,0,0,1-.808-1.637,2.254,2.254,0,0,1,.494-1.491,2.208,2.208,0,0,1,2.215-.65l.29.1c.385.133.855-.09,1.4-.67l.786-.827,7.1-8.244a2.6,2.6,0,0,0,.56-1.172l.15-.7a2.338,2.338,0,0,0-.737-1.765q-1.6-1.375-3.667.677-.489.48-1.442,1.541t-2.364,2.7l-3.2,3.713-.776.985-.514.686.19.916.1.234.128.637.055.2a2.271,2.271,0,0,1-.579,1.457q-1.376,1.6-3.1.109l-10.4-8.963a2.072,2.072,0,0,1-.808-1.638,2.252,2.252,0,0,1,.494-1.49,2.306,2.306,0,0,1,2.172-.687l.291.1a1.793,1.793,0,0,0,1.792-.335l.428-.233,7.693-9.016a2.363,2.363,0,0,0,.314-2.285l-.1-.315-.154-.434a2.106,2.106,0,0,1,.469-1.853,2.209,2.209,0,0,1,2.918-.419l10.055,4.828a2.365,2.365,0,0,1,.512.366,2.184,2.184,0,0,1,.488,2.752l-.206.5-.142.253-.223.258-.849,1.074.958-.153a8.68,8.68,0,0,1,7.373,1.916,13.351,13.351,0,0,1,3.622,4.7,4.828,4.828,0,0,1,.089,3.911l1.242-.132a10.609,10.609,0,0,1,8.281,2.7,12.377,12.377,0,0,1,4.438,6.983,7.448,7.448,0,0,1-1.692,6.589l-7.773,9.021a2.858,2.858,0,0,0-.68,2.8l.141.271.154.434a2.108,2.108,0,0,1-.469,1.851,1.966,1.966,0,0,1-3.14.154Z" transform="translate(-2323.629 -901.916)" fill="#fff"/>
        <path id="Path_1194" data-name="Path 1194" d="M2532.538,1327.136l-8.958-4.994a3.1,3.1,0,0,1-1.631-1.755l-.016-.207-.059-.358-.05-.616.016-.381a9.353,9.353,0,0,1-2.434.273l-1.046,0-.256-.01a15.69,15.69,0,0,1-4.938-1.906,12.248,12.248,0,0,1-5.151-6.326,6.894,6.894,0,0,1,.756-6.036q2.885-5.176,9.932-3.661,1.162.254,2.233.559a16.94,16.94,0,0,1,2.121.757l1.8.744,1.151.51,2.9,1.355.328-.47.594-1.3q.826-2.536-1.064-3.592a3.022,3.022,0,0,0-1.515-.324l-.593.128-1.628.462-.958.314a5.346,5.346,0,0,1-4.316-.448c-.166-.092-.336-.2-.507-.316a5.425,5.425,0,0,1-.481-.365l-.664-.566a3.137,3.137,0,0,1-.725-4.318q1.385-2.488,4.862-2.052a14.414,14.414,0,0,1,2.511.584q1.469.463,3.324,1.233l1.377.571,3.468,1.736q1.271.647,2.388,1.332a23.275,23.275,0,0,1,2.03,1.393,13.133,13.133,0,0,1,2.9,3.114q3.043,4.37.242,9.4l-3.133,5.624q-1.192,2.141-1.664,2.986c-.3.531-.359.6-.187.221q-1.118,2.117-.3,3.353l.244.265.187.367a2.115,2.115,0,0,1-.141,2.007,3.192,3.192,0,0,1-.461.592A2.166,2.166,0,0,1,2532.538,1327.136Zm-5.687-18.237-.2-.112-2.362-.793c-.086,0-.288-.01-.61-.015a9.68,9.68,0,0,0-1.254.083q-1.922.17-3.252,2.559-1.607,2.887,1.175,3.98a2.908,2.908,0,0,0,2.2-.081,4.164,4.164,0,0,0,1.49-.8l.272-.369.159-.171Z" transform="translate(-2332.261 -908.212)" fill="#fff"/>
        <path id="Path_1195" data-name="Path 1195" d="M2616.194,1357.66l-14.817-4.736a3.057,3.057,0,0,1-1.224-.659,1.99,1.99,0,0,1-.542-.831,1.777,1.777,0,0,1-.064-.828,4.851,4.851,0,0,1,.154-.669,2.231,2.231,0,0,1,1.944-1.592l.378-.058a2.763,2.763,0,0,0,1.961-1.647l.173-.542,5.072-18.118-14,17.6q-1.7,1.553-4.948.512a4.4,4.4,0,0,1-2.436-1.736,11.153,11.153,0,0,1-.923-1.789,8.1,8.1,0,0,1-.406-2.1l-.067-.919-1.344-18.254-6.344,17.234a2.732,2.732,0,0,0,.734,2.566l.166.232a2.231,2.231,0,0,1,.661,2.425,4.457,4.457,0,0,1-.851,1.163,1.973,1.973,0,0,1-2.195.317l-6.4-2.047a2.721,2.721,0,0,1-1.171-.643,2.1,2.1,0,0,1-.487-.814,1.773,1.773,0,0,1-.064-.827,4.763,4.763,0,0,1,.154-.668,2.163,2.163,0,0,1,1.89-1.61l.378-.059q1.367-.161,2.135-2.189l8.6-24.289a2.467,2.467,0,0,0-.7-2.5l-.146-.105-.074-.144a2.163,2.163,0,0,1-.606-2.407q.709-2.225,3.043-1.48l12.809,4.092a4.4,4.4,0,0,1,2.224,1.278,4.53,4.53,0,0,1,.579,2.489l.361,18.718,11.41-15.495q1.381-1.892,4.15-1.008l11.831,3.781a2.342,2.342,0,0,1,1.538,1.269,2.436,2.436,0,0,1,.122,1.774,2.122,2.122,0,0,1-1.873,1.554l-.378.059a2.778,2.778,0,0,0-2.086,1.667l-.157.487-6.471,24.371a2.887,2.887,0,0,0,.47,3.021l.144.106.13.16a2.485,2.485,0,0,1,.606,2.407,2.3,2.3,0,0,1-.441.817A2.217,2.217,0,0,1,2616.194,1357.66Z" transform="translate(-2339.204 -909.689)" fill="#fff"/>
        <path id="Path_1196" data-name="Path 1196" d="M2663.48,1363.983a10.857,10.857,0,0,1-8.434,3.272q-1.987-.23-5.926-.511l-.954-.166c-.037-.007-.451-.129-1.239-.361s-1.952-.581-3.491-1.041a10.665,10.665,0,0,1-6.9-5.887,14.341,14.341,0,0,1-1.31-9.077,13.591,13.591,0,0,1,4.612-8.218,11.683,11.683,0,0,1,8.743-3.045q4.522.265,5.308.4,8.251,1.437,11.96,6.711a12.639,12.639,0,0,1,1.933,9.821A14.351,14.351,0,0,1,2663.48,1363.983Zm-8.032-18.287a3.05,3.05,0,0,0-2.368-1.686,3.6,3.6,0,0,0-3.08,1.083q-1.718,1.9-2.647,7.23-.987,5.67.193,8.189a3.084,3.084,0,0,0,2.356,1.74q3.2.558,4.685-3.984.278-.935.641-2.52t.745-3.775A10.141,10.141,0,0,0,2655.448,1345.7Z" transform="translate(-2346.638 -913.488)" fill="#fff"/>
        <path id="Path_1197" data-name="Path 1197" d="M2703.416,1351.633a4.672,4.672,0,0,1-4.855,3,5.523,5.523,0,0,1-.649-.107c-.281-.059-.46-.091-.536-.1l-1.963-.491a2.327,2.327,0,0,0-1.576.453,5.415,5.415,0,0,0-.8,2.967l-.538,7.1a2.619,2.619,0,0,0,1.113,2.655l.275.136.325.253a2.01,2.01,0,0,1,.722,1.769q-.164,2.161-2.436,1.987l-14.6-1.107a2.072,2.072,0,0,1-1.622-.838,2.245,2.245,0,0,1-.487-1.493,2.3,2.3,0,0,1,1.34-1.841l.293-.091a2.212,2.212,0,0,0,1.4-1.895l.1-.563.789-11.139a2.361,2.361,0,0,0-1.1-2.027l-.272-.192-.38-.256a2.11,2.11,0,0,1-.723-1.77q.125-1.647,2.1-2.069l9.993-2.157c.192-.022.335-.04.432-.052a1.28,1.28,0,0,1,.2-.014q2.33.178,2.089,3.359l-.074.967.437-.482.992-1.01a11.435,11.435,0,0,1,2.252-1.829,5.973,5.973,0,0,1,2.945-.4q5.625.426,5.25,5.368A9.411,9.411,0,0,1,2703.416,1351.633Z" transform="translate(-2351.241 -914.033)" fill="#fff"/>
        <path id="Path_1198" data-name="Path 1198" d="M2738.384,1359.9q-.733.413-6.926,1.329a59.18,59.18,0,0,0-5.852.913l.016.795q.081,4.148,5.151,4.048,2.792-.053,7.964-3.69a4.108,4.108,0,0,1,2.042-.5q1.885.249,1.915,1.787t-2.137,4.337q-1.223,1.579-5.873,2.763a29.6,29.6,0,0,1-6.646,1.052,20.262,20.262,0,0,1-11.454-2.852,11.549,11.549,0,0,1-5.553-9.977,12.144,12.144,0,0,1,5.316-10.762q5.955-4.277,11.825-4.392a18.834,18.834,0,0,1,7.9,1.606q6.321,2.719,6.41,7.149Q2742.552,1357.429,2738.384,1359.9Zm-10.108-9.791a3.054,3.054,0,0,0-3.146,2.342,12.232,12.232,0,0,0-.441,3.656c.005.3.021.589.045.854s.058.531.1.795a10.735,10.735,0,0,0,4.187-1.564,4.768,4.768,0,0,0,1.516-4.019Q2730.5,1350.061,2728.275,1350.1Z" transform="translate(-2355.219 -914.145)" fill="#fff"/>
        <path id="Path_1199" data-name="Path 1199" d="M2810.957,1339.166a21.058,21.058,0,0,1-7.025,5.2,70.984,70.984,0,0,1-8.819,3.532l-.893.181,1.609,7.929a2.607,2.607,0,0,0,1.825,1.839l.314.111a2.4,2.4,0,0,1,1.7,1.805,4.516,4.516,0,0,1-.175,1.431q-.257,1.041-1.763,1.346l-15.691,3.182a2.717,2.717,0,0,1-1.335.009,2.07,2.07,0,0,1-.822-.474,1.771,1.771,0,0,1-.46-.69,4.948,4.948,0,0,1-.191-.658,2.165,2.165,0,0,1,.864-2.327l.3-.236a2.757,2.757,0,0,0,.91-2.393l-5.232-25.8a2.821,2.821,0,0,0-1.771-1.85l-.179-.023-.19-.077a2.163,2.163,0,0,1-1.7-1.806,2.091,2.091,0,0,1,1.881-2.765l23.117-4.688q5.865-1.19,10.026.989,4.488,2.347,5.643,8.044A9.4,9.4,0,0,1,2810.957,1339.166Zm-15.818-10.338a4.658,4.658,0,0,0-3.52-.739q-1.733.35-1.427,1.859l.2,1,2.3,11.627.379-.136.223-.045a4.274,4.274,0,0,1,.881-.527c.068-.052.306-.256.719-.611s.994-.88,1.744-1.576q1.917-1.723,1.268-6.361A6.052,6.052,0,0,0,2795.139,1328.828Z" transform="translate(-2362.119 -911.525)" fill="#fff"/>
        <path id="Path_1200" data-name="Path 1200" d="M2852.62,1337.053q-.582.608-6.235,3.3a59.134,59.134,0,0,0-5.331,2.582l.248.755q1.291,3.945,6.11,2.367,2.652-.868,6.538-5.855a4.081,4.081,0,0,1,1.807-1.071q1.876-.314,2.354,1.148t-.776,4.772q-.708,1.868-4.808,4.359a29.452,29.452,0,0,1-6.05,2.947,20.258,20.258,0,0,1-11.787.62,11.545,11.545,0,0,1-8.225-7.919,12.137,12.137,0,0,1,1.938-11.844q4.446-5.831,10.024-7.657a18.838,18.838,0,0,1,8.021-.77q6.841.752,8.22,4.964Q2855.886,1333.473,2852.62,1337.053Zm-12.529-6.411a3.057,3.057,0,0,0-2.323,3.159,12.263,12.263,0,0,0,.646,3.626c.095.289.192.557.294.8s.21.492.328.732a10.717,10.717,0,0,0,3.547-2.72,4.76,4.76,0,0,0,.276-4.286A1.917,1.917,0,0,0,2840.091,1330.642Z" transform="translate(-2368.165 -911.877)" fill="#fff"/>
        <path id="Path_1201" data-name="Path 1201" d="M2885.614,1313.993a4.675,4.675,0,0,1-2.892,4.923,5.363,5.363,0,0,1-.624.208c-.276.08-.451.134-.52.164l-1.965.481a2.344,2.344,0,0,0-1.183,1.136,5.414,5.414,0,0,0,.682,3l2.841,6.53a2.619,2.619,0,0,0,2.223,1.828l.306-.01.406.074a2.009,2.009,0,0,1,1.466,1.227,1.967,1.967,0,0,1-1.228,2.895l-13.427,5.839a2.069,2.069,0,0,1-1.826.016,2.25,2.25,0,0,1-1.128-1.093,2.3,2.3,0,0,1,.325-2.253l.217-.218a2.212,2.212,0,0,0,.353-2.329l-.175-.546-4.5-10.219a2.363,2.363,0,0,0-1.921-1.277l-.329-.042-.457-.05a2.1,2.1,0,0,1-1.465-1.227,2.26,2.26,0,0,1,.89-2.81l7.829-6.572.357-.249a1.109,1.109,0,0,1,.171-.1q2.142-.934,3.416,1.994l.386.888.161-.629.4-1.357a11.42,11.42,0,0,1,1.138-2.669,6,6,0,0,1,2.415-1.734q5.174-2.249,7.15,2.3A9.568,9.568,0,0,1,2885.614,1313.993Z" transform="translate(-2372.099 -910.117)" fill="#fff"/>
        <path id="Path_1202" data-name="Path 1202" d="M2904.077,1288.83a7.31,7.31,0,0,1-1.556,1.143q-1.814.954-2.827.008l-.208-.149-.209-.275-.156-.175a.552.552,0,0,0-.516-.245q-.715-.011-.1,1.15a1.963,1.963,0,0,1,.315.477l.787,1,2.788,5.292,2.419-1.275q2.621-1.38,3.976,1.19a2.593,2.593,0,0,1-.323,2.81,4.513,4.513,0,0,1-.975.836l-2.192,1.219,6.771,12.855a2.69,2.69,0,0,0,2.14,1.125l.305-.031.358.069a2.221,2.221,0,0,1,1.629,1.136q.984,1.868-1.033,2.928l-13.006,6.851a1.965,1.965,0,0,1-3.025-.854,2.2,2.2,0,0,1,.207-2.3l.2-.235a2.211,2.211,0,0,0,.179-2.348l-.214-.531-6.507-12.349-.857.452a2.451,2.451,0,0,1-2.314.189,3.21,3.21,0,0,1-1.518-1.841q-.686-2.278,1.079-3.208l1.009-.532-.478-.907q-3.372-6.4-2.206-10.849t7.015-7.526a11.176,11.176,0,0,1,1.186-.5q.836-.31,2.2-.774a5.907,5.907,0,0,1,3.39-.046,3.732,3.732,0,0,1,2.587,1.857,3.78,3.78,0,0,1,.451,2.08A2.864,2.864,0,0,1,2904.077,1288.83Z" transform="translate(-2375.161 -907.108)" fill="#fff"/>
        <path id="Path_1203" data-name="Path 1203" d="M2943.682,1290.469q-.409.733-5.2,4.766a58.681,58.681,0,0,0-4.5,3.846l.43.669q2.245,3.489,6.51.742,2.346-1.51,4.843-7.32a4.108,4.108,0,0,1,1.477-1.493q1.734-.777,2.567.515t.457,4.814q-.213,1.987-3.549,5.435a29.456,29.456,0,0,1-5.106,4.381,20.27,20.27,0,0,1-11.247,3.583,11.547,11.547,0,0,1-9.962-5.581,12.135,12.135,0,0,1-1.122-11.95q2.826-6.765,7.761-9.944a18.813,18.813,0,0,1,7.564-2.773q6.808-1.006,9.208,2.723Q2945.935,1286.177,2943.682,1290.469Zm-13.744-3.033a3.056,3.056,0,0,0-1.448,3.643,12.222,12.222,0,0,0,1.544,3.344c.165.256.325.49.486.7s.328.422.5.624a10.718,10.718,0,0,0,2.743-3.527,4.76,4.76,0,0,0-.818-4.217A1.916,1.916,0,0,0,2929.938,1287.436Z" transform="translate(-2378.602 -906.831)" fill="#fff"/>
        <path id="Path_1204" data-name="Path 1204" d="M2983.183,1270.891a12.293,12.293,0,0,1-1.615,4.545,24,24,0,0,1-5.947,6.882q-5.245,4.206-10.531,4.353-5.685.1-9.854-5.1a14.105,14.105,0,0,1-3.4-8.522q-.177-7.232,7.249-13.184a19.369,19.369,0,0,1,9.881-4.344q3.125-.382,4.656,1.526a3.25,3.25,0,0,1,.244,4.041l-.7.854-.907.873a5.132,5.132,0,0,1-4.518.921l-.712-.16-.553-.142q-2.482-.637-3.328.039a3.218,3.218,0,0,0-.9,2.615,6.692,6.692,0,0,0,.76,2.314l.428.9.41.694q.41.7.917,1.418t1.114,1.48l1.9,1.913a4.886,4.886,0,0,0,3.525,1.481,6.13,6.13,0,0,0,5.717-4.07,1.411,1.411,0,0,0,.093-.294,3.741,3.741,0,0,1,.156-.49l.123-.392.719-2.474a4.329,4.329,0,0,1,.915-1.318q1.958-1.569,3.6.477A4.186,4.186,0,0,1,2983.183,1270.891Z" transform="translate(-2382.398 -904.068)" fill="#fff"/>
        <path id="Path_1205" data-name="Path 1205" d="M3006.821,1253.1l-8.291,7.9a5.592,5.592,0,0,1-1.919.962,4.641,4.641,0,0,1-4.522-1.279l-11.082-11.633-1.4,1.335a1.777,1.777,0,0,1-1.521.387,2.839,2.839,0,0,1-1.731-.909q-1.847-1.939-.231-3.793a8.594,8.594,0,0,0,1.849-3.1l.131-.44.049-.36q.149-1.164-1.5-4.47a3.494,3.494,0,0,1,.422-4.1q2.353-2.24,2.514-2.318,1.718-1.169,2.919.092l4.187,4.394,2.309-2.2q2.145-2.044,4.03-.066a3.734,3.734,0,0,1,1.214,2.058,2.851,2.851,0,0,1-1.149,1.976l-2.516,2.4,9.117,9.571a3.144,3.144,0,0,0,1.676.686,4.381,4.381,0,0,0,2.457-1.632l.616-.428q1.437-1.053,3.205.8Q3009.337,1250.7,3006.821,1253.1Z" transform="translate(-2385.054 -901.275)" fill="#fff"/>
        <path id="Path_1206" data-name="Path 1206" d="M3025.428,1168.317a2.391,2.391,0,0,1,.9,2.315l-.033.33a3.111,3.111,0,0,0,1.523,3l.683.514a8.464,8.464,0,0,0,.763.5l7.266,4.748q.764.5,1.486,1.009t1.406,1.022q7.652,5.75,9.641,11.166,1.831,5.154-3.816,12.667l-1.953,2.6q.07-.092-.934,1.008t-3.116,3.432a11.675,11.675,0,0,1-8.333,3.785q-5.823.258-13.018-5.721l-4.932-4.061-5.226-4.426a7.323,7.323,0,0,0-2.243-1.473,2.521,2.521,0,0,0-1.72.2l-.148.1-.194.068a2.094,2.094,0,0,1-2.506-.173q-1.868-1.4-.4-3.361l9.208-12.252q1.507-2,3.374-.6a2.162,2.162,0,0,1,.9,2.313l-.068.376a2.884,2.884,0,0,0,.817,2.61q.741.63,2.33,1.929t4.114,3.343l5.021,4.13q1.152.937,1.954,1.574t1.212.948a11.03,11.03,0,0,0,5.251,2.306,8.655,8.655,0,0,0,3.51-.5,7.264,7.264,0,0,0,3.4-2.434q2.771-3.691,1.977-6.711-.35-1.618-2.753-3.636a5.306,5.306,0,0,0-.878-.731q-2.869-2.157-4.731-3.519t-2.807-2l-3.018-2.055-5.033-3.355-1.47-.891a2.035,2.035,0,0,0-2.153.021l-.148.1-.159.022a2.166,2.166,0,0,1-2.474-.219q-1.866-1.4-.395-3.362l4.586-6.1a2.222,2.222,0,0,1,2.507-.966A2.611,2.611,0,0,1,3025.428,1168.317Z" transform="translate(-2387.82 -894.176)" fill="#fff"/>
        <path id="Path_1207" data-name="Path 1207" d="M3074.716,1163.482a2.068,2.068,0,0,1-1.45,1.107,2.249,2.249,0,0,1-1.558-.2,2.055,2.055,0,0,1-1.092-2l.015-.255c.046-.541.029-.858-.051-.946l-.765-.5-.466-.331-.5-.282-1.357-.84-1.853-1.12-3.316-1.891-1.789-.887-1.387-.79-.651-.24q-2.176-.781-3.109.852-1.41,2.475,2.006,4.421l9.879,5.565a5.641,5.641,0,0,0,.972.421c.1.017.323-.121.66-.409l.241-.193a2.176,2.176,0,0,1,2.325-.051,1.839,1.839,0,0,1,.816,2.826l-7.195,12.622a2.076,2.076,0,0,1-1.451,1.108,2.24,2.24,0,0,1-1.559-.2,2.3,2.3,0,0,1-1.09-2l.042-.3a2.467,2.467,0,0,0-1.2-2.26l-.318-.247-9.731-5.481a2.355,2.355,0,0,0-2.3.13l-.289.162-.367.186a1.969,1.969,0,0,1-1.957-.133,2.161,2.161,0,0,1-.951-2.7l2.582-10.4a2.29,2.29,0,0,1,.261-.574q.93-1.631,3.109-.852l.275.092,1.436.819q-2.1-4.478,1.366-10.568,2.652-4.651,6.426-5.289t9.168,2.439l3.911,2.229.564.388,2.525,1.438a2.854,2.854,0,0,0,2.876.132l.241-.191.395-.234a2.1,2.1,0,0,1,1.908.1,1.967,1.967,0,0,1,.753,3.054Z" transform="translate(-2392.777 -891.233)" fill="#fff"/>
        <path id="Path_1208" data-name="Path 1208" d="M3059.017,1124.962a4.558,4.558,0,0,1-4.256.408,5.28,5.28,0,0,1-3.111-4.3,6.8,6.8,0,0,1,.609-5.045,8.079,8.079,0,0,1,3.386-3.716,5.156,5.156,0,0,1,4.833-.3,4.934,4.934,0,0,1,2.815,3.852,8.145,8.145,0,0,1-.718,4.869A8.954,8.954,0,0,1,3059.017,1124.962Zm33.285,1.433-6.073,13.322a2.073,2.073,0,0,1-1.344,1.234,2.245,2.245,0,0,1-1.572-.059,2.3,2.3,0,0,1-1.266-1.891l.015-.307a2.213,2.213,0,0,0-1.294-1.968l-.5-.287-10.184-4.581a2.356,2.356,0,0,0-2.282.336l-.274.189-.373.267a2.1,2.1,0,0,1-1.911.07q-1.4-.639-1.218-2.685l2.107-11.624a2.348,2.348,0,0,1,.208-.594q.78-1.711,3.378-1.091a12.49,12.49,0,0,1,1.579.657l14.62,6.666a2.653,2.653,0,0,0,2.852-.078l.246-.263.349-.216a2.062,2.062,0,0,1,1.961-.043,1.979,1.979,0,0,1,.656.485A2.164,2.164,0,0,1,3092.3,1126.395Z" transform="translate(-2393.64 -887.825)" fill="#fff"/>
        <path id="Path_1209" data-name="Path 1209" d="M3104.135,1086.3a10.865,10.865,0,0,1,1.8,8.869q-.564,1.916-1.509,5.754l-.325.912q-.02.053-.565,1.159t-1.619,3.265a10.664,10.664,0,0,1-6.969,5.8,14.347,14.347,0,0,1-9.168-.247,13.592,13.592,0,0,1-7.319-5.938,11.694,11.694,0,0,1-1.52-9.133q1.029-4.411,1.3-5.163,2.813-7.888,8.64-10.649a12.634,12.634,0,0,1,10.006-.241A14.36,14.36,0,0,1,3104.135,1086.3Zm-19.384,4.821a3.045,3.045,0,0,0-2.062,2.048,3.6,3.6,0,0,0,.546,3.219q1.581,2.015,6.677,3.835,5.421,1.931,8.1,1.2a3.087,3.087,0,0,0,2.115-2.029q1.091-3.058-3.133-5.292-.874-.432-2.375-1.059t-3.594-1.372A10.128,10.128,0,0,0,3084.751,1091.116Z" transform="translate(-2396.479 -884.239)" fill="#fff"/>
        <path id="Path_1210" data-name="Path 1210" d="M3117.545,1053.1a2.074,2.074,0,0,1-1.074,1.475,2.25,2.25,0,0,1-1.551.254,2.06,2.06,0,0,1-1.616-1.606l-.059-.247q-.165-.8-.319-.892l-.875-.263-.541-.184-.555-.13-1.541-.416-2.1-.548-3.717-.865-1.969-.342-1.554-.361-.691-.044q-2.307-.128-2.736,1.7-.647,2.774,3.183,3.666l11.056,2.516a5.665,5.665,0,0,0,1.051.127c.1-.014.274-.208.515-.582l.177-.251a2.172,2.172,0,0,1,2.213-.712,1.838,1.838,0,0,1,1.588,2.475l-3.295,14.15a2.073,2.073,0,0,1-1.075,1.476,2.241,2.241,0,0,1-1.55.253,2.3,2.3,0,0,1-1.615-1.6l-.047-.3q-.142-1.143-1.8-1.822l-.375-.146-10.889-2.477a2.355,2.355,0,0,0-2.171.781l-.231.24-.3.28a1.971,1.971,0,0,1-1.915.433,2.162,2.162,0,0,1-1.682-2.322l-.492-10.7a2.288,2.288,0,0,1,.088-.624q.424-1.831,2.736-1.7l.29.009,1.609.374q-3.292-3.691-1.705-10.517,1.214-5.215,4.65-6.9t9.483-.279l4.383,1.022.654.21,2.83.658a2.854,2.854,0,0,0,2.794-.695l.176-.252.312-.335a2.11,2.11,0,0,1,1.86-.446,1.965,1.965,0,0,1,1.591,2.711Z" transform="translate(-2397.879 -879.279)" fill="#fff"/>
        <path id="Path_1211" data-name="Path 1211" d="M3126.577,997.49a6.954,6.954,0,0,1-6,3.044q-4.652-.112-7.194-4.66a12.241,12.241,0,0,1-1.963-7.89,13.065,13.065,0,0,1,4.309-8.86,7.945,7.945,0,0,1,5.69-1.83,7.573,7.573,0,0,1,6.318,4.058,14.053,14.053,0,0,1,1.611,7.684A15.187,15.187,0,0,1,3126.577,997.49Z" transform="translate(-2400.403 -872.67)" fill="#fff"/>
        <path id="Path_1212" data-name="Path 1212" d="M3127.975,963.124a6.952,6.952,0,0,1-5.714,3.54q-4.647.281-7.563-4.036a12.238,12.238,0,0,1-2.624-7.695,13.054,13.054,0,0,1,3.545-9.193,7.939,7.939,0,0,1,5.512-2.306,7.575,7.575,0,0,1,6.64,3.509,14.053,14.053,0,0,1,2.256,7.52A15.179,15.179,0,0,1,3127.975,963.124Z" transform="translate(-2400.483 -868.851)" fill="#fff"/>
        <path id="Path_1213" data-name="Path 1213" d="M3126.457,928.758a6.949,6.949,0,0,1-5.395,4.012q-4.6.676-7.877-3.378a12.242,12.242,0,0,1-3.267-7.445,13.06,13.06,0,0,1,2.752-9.46,7.939,7.939,0,0,1,5.3-2.764,7.571,7.571,0,0,1,6.912,2.932,14.038,14.038,0,0,1,2.886,7.3A15.162,15.162,0,0,1,3126.457,928.758Z" transform="translate(-2400.236 -865.04)" fill="#fff"/>
        <path id="Path_1214" data-name="Path 1214" d="M3073.857,871.649q.911,3.907-1.308,4.424a2.111,2.111,0,0,1-1.654-.27l-2.958-1.837-2.874-1.482-.944-.435-.724-.3-.485-.074-.685-.122.332,1.421a7.646,7.646,0,0,1-.443,5.719,6.869,6.869,0,0,1-4.889,4.323,7.779,7.779,0,0,1-6.672-1.717,13.337,13.337,0,0,1-4.243-5.75,4.6,4.6,0,0,1-.3-.867c-.083-.356-.179-.769-.291-1.244a14.968,14.968,0,0,1-.284-4.426q.719-7.751,7.732-9.388,5.858-1.368,13.553,4.327A28.7,28.7,0,0,1,3073.857,871.649Zm-5.088,14.9a25.632,25.632,0,0,1,3.777,2.348,28.711,28.711,0,0,1,7.133,7.7q.911,3.908-1.308,4.423a2.111,2.111,0,0,1-1.655-.269l-2.956-1.838-2.873-1.482-.945-.435-.7-.211-.506-.162-.683-.121.332,1.42a7.858,7.858,0,0,1-.465,5.631,6.691,6.691,0,0,1-4.867,4.413,8.361,8.361,0,0,1-6.674-1.718,12.446,12.446,0,0,1-4.244-5.749,4.789,4.789,0,0,1-.3-.868c-.083-.356-.179-.769-.289-1.244a14.894,14.894,0,0,1-.284-4.426q.717-7.75,7.731-9.388a10.528,10.528,0,0,1,5.768.246A35.954,35.954,0,0,1,3068.769,886.55Z" transform="translate(-2392.958 -859.362)" fill="#fff"/>
      </g>
    </g>
  </g>
</svg>
