<svg xmlns="http://www.w3.org/2000/svg" xmlns:xlink="http://www.w3.org/1999/xlink" width="47" height="47" viewBox="0 0 47 47">
  <defs>
    <clipPath id="clip-path">
      <rect width="47" height="47" fill="none"/>
    </clipPath>
  </defs>
  <g id="Component_62_8" data-name="Component 62 – 8" clip-path="url(#clip-path)">
    <rect id="Rectangle_176" data-name="Rectangle 176" width="47" height="47" fill="none"/>
    <path id="Path_99" data-name="Path 99" d="M46.9,42.77l-9.734-9.734A20.2,20.2,0,0,0,41.3,20.648,20.521,20.521,0,0,0,20.648,0,20.521,20.521,0,0,0,0,20.648,20.521,20.521,0,0,0,20.648,41.3a20.2,20.2,0,0,0,12.389-4.13L42.77,46.9ZM5.9,20.648A14.605,14.605,0,0,1,20.648,5.9,14.605,14.605,0,0,1,35.4,20.648,14.605,14.605,0,0,1,20.648,35.4,14.605,14.605,0,0,1,5.9,20.648Z" fill="#9ec7e1"/>
  </g>
</svg>
